<svg width="534" height="415" viewBox="0 0 534 415" fill="none" xmlns="http://www.w3.org/2000/svg">
<path d="M435.3 274.711C435.898 273.854 436.318 272.863 436.531 271.808C436.744 270.752 436.746 269.658 436.534 268.601C436.323 267.545 435.905 266.553 435.309 265.695C434.714 264.837 433.955 264.133 433.086 263.634L434.41 246.791L425.339 243.406L423.772 267.221C423.109 268.888 423.024 270.765 423.531 272.498C424.038 274.23 425.103 275.697 426.523 276.62C427.944 277.543 429.622 277.859 431.239 277.507C432.856 277.156 434.301 276.161 435.298 274.712L435.3 274.711Z" fill="#FFB8B8"/>
<path d="M480.559 405.66H472.397L468.513 370.866H480.565L480.559 405.66Z" fill="#FFB8B8"/>
<path d="M466.564 403.082H482.312V414.034H456.648C456.648 411.13 457.693 408.344 459.553 406.29C461.412 404.236 463.934 403.082 466.564 403.082Z" fill="#2F2E41"/>
<path d="M462.027 382.573L454.099 384.725L442.809 351.965L454.512 348.788L462.027 382.573Z" fill="#FFB8B8"/>
<path d="M447.989 383.449L463.28 379.291L465.65 389.926L440.731 396.701C440.102 393.881 440.514 390.9 441.875 388.415C443.236 385.929 445.435 384.143 447.989 383.449V383.449Z" fill="#2F2E41"/>
<path d="M471.005 394.566C470.26 394.568 469.54 394.264 468.985 393.713C468.431 393.162 468.082 392.403 468.005 391.584L458.611 294.895L450.435 324.463L462.015 370.644C462.215 371.436 462.142 372.281 461.812 373.017C461.482 373.753 460.917 374.329 460.226 374.633L451.019 378.701C450.64 378.868 450.234 378.949 449.826 378.939C449.418 378.928 449.016 378.826 448.645 378.639C448.273 378.452 447.94 378.184 447.665 377.851C447.39 377.517 447.179 377.126 447.044 376.7L432.853 331.722C431.299 326.811 430.612 321.617 430.828 316.42L432.808 267.88L484.981 270.32L484.166 390.414C484.157 391.25 483.865 392.052 483.348 392.663C482.831 393.274 482.127 393.65 481.372 393.717L471.24 394.56C471.161 394.564 471.083 394.566 471.005 394.566Z" fill="#2F2E41"/>
<path d="M462.365 160.457C472.054 160.457 479.908 151.781 479.908 141.079C479.908 130.377 472.054 121.701 462.365 121.701C452.676 121.701 444.822 130.377 444.822 141.079C444.822 151.781 452.676 160.457 462.365 160.457Z" fill="#FFB8B8"/>
<path d="M475.266 273.478C470.646 273.478 464.909 273.061 458.968 272.629C450.854 272.039 442.465 271.429 436.201 271.83C435.355 271.923 434.502 271.774 433.723 271.4C432.944 271.025 432.265 270.436 431.75 269.689C425.294 260.557 435.25 224.947 435.678 223.437L443.781 183.619L444.13 183.705L443.781 183.619C445.567 174.861 451.26 168.401 458.647 166.76C465.561 165.226 472.249 168.283 476.538 174.945C476.766 175.299 476.993 175.662 477.22 176.033C491.185 198.88 483.286 255.641 482.757 259.301C483.495 260.277 487.484 265.796 486.388 269.629C485.941 271.189 484.73 272.252 482.786 272.785C480.31 273.327 477.787 273.559 475.264 273.476L475.266 273.478Z" fill="#6C63FF"/>
<path d="M436.484 273.495C434.895 273.495 432.751 272.847 429.861 271.523C428.619 270.952 424.839 269.215 429.428 224.917C431.683 203.157 434.912 181.548 434.944 181.333L434.975 181.125L435.149 181.038C435.232 180.996 443.479 176.821 444.913 171.455C444.961 171.269 445.016 171.089 445.08 170.915C445.475 169.722 446.271 168.743 447.303 168.184C448.335 167.624 449.523 167.526 450.619 167.91C451.776 168.216 452.785 168.996 453.441 170.093C454.096 171.191 454.349 172.522 454.149 173.818C453.649 177.318 452.689 180.718 451.298 183.911C447.417 192.755 444.788 216.202 444.762 216.438C444.614 218.44 441.092 265.884 440.414 269.484C440.177 270.742 439.741 272.28 438.462 273.027C437.848 273.361 437.169 273.524 436.485 273.5L436.484 273.495Z" fill="#2F2E41"/>
<path d="M455.648 271.677C455.328 271.678 455.017 271.56 454.763 271.342C449.602 267.01 457.955 214.496 462.906 196.377C463.898 192.748 464.781 189.642 465.532 187.141C466.899 182.655 467.854 178.028 468.381 173.33C468.654 170.784 469.246 169.331 470.193 168.885C470.851 168.575 471.622 168.786 472.493 169.511C477.069 169.262 481.516 171.326 485.636 173.599L489.344 175.642L493.505 257.024C493.388 262.218 484.119 265.884 480.077 266.118C473.585 266.495 461.928 267.662 456.792 271.254C456.455 271.512 456.059 271.659 455.649 271.677L455.648 271.677Z" fill="#2F2E41"/>
<path d="M432.466 256.408C432.405 256.408 432.343 256.408 432.281 256.401L423.876 255.83C423.457 255.802 423.049 255.678 422.676 255.465C422.303 255.253 421.975 254.958 421.711 254.597C421.448 254.237 421.255 253.82 421.145 253.373C421.035 252.926 421.011 252.459 421.074 252.001L424.877 224.167L432.037 185.113C432.213 184.151 432.571 183.241 433.086 182.441C433.601 181.641 434.263 180.97 435.028 180.471C435.793 179.972 436.645 179.656 437.528 179.544C438.41 179.432 439.305 179.526 440.153 179.82V179.82C441.602 180.33 442.838 181.397 443.638 182.826C444.438 184.255 444.749 185.953 444.515 187.614L438.827 226.747L435.459 253.53C435.356 254.327 434.996 255.056 434.447 255.584C433.897 256.112 433.194 256.404 432.466 256.408H432.466Z" fill="#2F2E41"/>
<path d="M461.181 225.941C461.693 225.02 462.382 224.234 463.2 223.639C464.017 223.043 464.943 222.653 465.912 222.496C466.88 222.338 467.869 222.417 468.807 222.727C469.745 223.037 470.61 223.571 471.341 224.29L485.123 216.937L491.211 225.098L471.617 235.18C470.441 236.457 468.883 237.213 467.236 237.305C465.59 237.398 463.97 236.82 462.684 235.681C461.397 234.542 460.534 232.922 460.257 231.127C459.98 229.332 460.308 227.487 461.181 225.941V225.941Z" fill="#FFB8B8"/>
<path d="M480.326 233.838C479.647 233.838 478.988 233.586 478.455 233.122C477.922 232.658 477.546 232.01 477.387 231.281L475.387 222.09C475.234 221.398 475.287 220.671 475.536 220.015C475.786 219.359 476.219 218.809 476.773 218.445L488.844 210.464L482.673 185.506C482.139 183.368 482.384 181.085 483.355 179.145C484.326 177.204 485.946 175.761 487.869 175.124C489.791 174.486 491.863 174.705 493.641 175.734C495.419 176.763 496.762 178.52 497.382 180.629L504.195 203.608C505.032 206.409 505.039 209.432 504.214 212.237C503.389 215.043 501.776 217.485 499.609 219.208L482.095 233.205C481.58 233.616 480.961 233.838 480.326 233.838V233.838Z" fill="#2F2E41"/>
<path d="M349.901 0H11.914C8.75534 0.00417593 5.72717 1.39203 3.49369 3.85911C1.26021 6.3262 0.00378052 9.67108 0 13.1601V53.3346C0.00378052 56.8236 1.26021 60.1685 3.49369 62.6356C5.72717 65.1027 8.75534 66.4905 11.914 66.4947H349.901C353.059 66.4905 356.087 65.1027 358.321 62.6356C360.554 60.1685 361.811 56.8236 361.815 53.3346V13.1601C361.811 9.67108 360.554 6.3262 358.321 3.85911C356.087 1.39203 353.059 0.00417593 349.901 0ZM360.56 53.3346C360.556 56.456 359.432 59.4483 357.434 61.6554C355.435 63.8626 352.727 65.1046 349.901 65.1092H11.914C9.08811 65.1046 6.37918 63.8626 4.381 61.6554C2.38281 59.4483 1.25841 56.456 1.25425 53.3346V13.1601C1.25841 10.0387 2.38281 7.04639 4.381 4.83922C6.37918 2.63204 9.08811 1.39003 11.914 1.38543H349.901C352.727 1.39003 355.435 2.63204 357.434 4.83922C359.432 7.04639 360.556 10.0387 360.56 13.1601V53.3346Z" fill="#3F3D56"/>
<path d="M349.901 161.387H11.914C8.75534 161.383 5.72717 159.995 3.49369 157.528C1.26021 155.061 0.00378052 151.716 0 148.227V108.053C0.00378052 104.564 1.26021 101.219 3.49369 98.7521C5.72717 96.285 8.75534 94.8972 11.914 94.893H349.901C353.059 94.8972 356.087 96.285 358.321 98.7521C360.554 101.219 361.811 104.564 361.815 108.053V148.227C361.811 151.716 360.554 155.061 358.321 157.528C356.087 159.995 353.059 161.383 349.901 161.387ZM11.914 96.2784C9.08782 96.282 6.37835 97.5236 4.37996 99.731C2.38157 101.938 1.25746 104.931 1.25425 108.053V148.227C1.2569 151.349 2.38075 154.342 4.3792 156.55C6.37765 158.758 9.08745 160 11.914 160.004H349.901C352.727 160 355.437 158.759 357.435 156.551C359.434 154.344 360.558 151.351 360.561 148.229V108.053C360.558 104.931 359.434 101.938 357.435 99.731C355.437 97.5236 352.728 96.282 349.901 96.2784H11.914Z" fill="#CCCCCC"/>
<path d="M349.901 256.28H11.914C8.75534 256.276 5.72717 254.888 3.49369 252.421C1.26021 249.954 0.00378052 246.609 0 243.12V202.946C0.00378052 199.457 1.26021 196.112 3.49369 193.645C5.72717 191.178 8.75534 189.79 11.914 189.786H349.901C353.059 189.79 356.087 191.178 358.321 193.645C360.554 196.112 361.811 199.457 361.815 202.946V243.12C361.811 246.609 360.554 249.954 358.321 252.421C356.087 254.888 353.059 256.276 349.901 256.28ZM11.914 191.168C9.08782 191.172 6.37835 192.413 4.37996 194.621C2.38157 196.828 1.25746 199.821 1.25425 202.943V243.117C1.25727 246.238 2.3813 249.232 4.37971 251.439C6.37812 253.647 9.08769 254.888 11.914 254.892H349.901C352.727 254.889 355.437 253.647 357.435 251.44C359.434 249.232 360.558 246.239 360.561 243.117V202.946C360.559 199.824 359.435 196.83 357.436 194.622C355.438 192.414 352.727 191.172 349.901 191.168H11.914Z" fill="#CCCCCC"/>
<path d="M57.5835 56.1528C53.4821 56.1528 49.4729 54.8094 46.0628 52.2925C42.6527 49.7757 39.9949 46.1983 38.4254 42.0129C36.8559 37.8275 36.4452 33.2219 37.2453 28.7787C38.0454 24.3355 40.0204 20.2541 42.9205 17.0507C45.8205 13.8473 49.5155 11.6658 53.538 10.782C57.5605 9.89818 61.7299 10.3518 65.519 12.0854C69.3081 13.8191 72.5467 16.755 74.8253 20.5217C77.1039 24.2885 78.3201 28.7171 78.3201 33.2473C78.3201 39.3223 76.1353 45.1484 72.2465 49.444C68.3576 53.7396 63.0831 56.1528 57.5835 56.1528Z" fill="#6C63FF"/>
<path d="M319.284 51.9484H97.9331C96.6026 51.9484 95.3266 51.3645 94.3858 50.3253C93.445 49.2861 92.9164 47.8767 92.9164 46.407C92.9164 44.9374 93.445 43.5279 94.3858 42.4887C95.3266 41.4495 96.6026 40.8657 97.9331 40.8657H319.284C320.615 40.8657 321.891 41.4495 322.832 42.4887C323.772 43.5279 324.301 44.9374 324.301 46.407C324.301 47.8767 323.772 49.2861 322.832 50.3253C321.891 51.3645 320.615 51.9484 319.284 51.9484V51.9484Z" fill="#CCCCCC"/>
<path d="M247.168 28.3983H97.9281C96.5976 28.3983 95.3216 27.8145 94.3808 26.7753C93.44 25.7361 92.9114 24.3266 92.9114 22.857C92.9114 21.3873 93.44 19.9778 94.3808 18.9386C95.3216 17.8994 96.5976 17.3156 97.9281 17.3156H247.168C248.499 17.3156 249.775 17.8994 250.716 18.9386C251.656 19.9778 252.185 21.3873 252.185 22.857C252.185 24.3266 251.656 25.7361 250.716 26.7753C249.775 27.8145 248.499 28.3983 247.168 28.3983V28.3983Z" fill="#CCCCCC"/>
<path d="M57.5835 151.045C53.4821 151.045 49.4729 149.702 46.0628 147.185C42.6527 144.668 39.9949 141.091 38.4254 136.905C36.8559 132.72 36.4452 128.114 37.2453 123.671C38.0454 119.228 40.0204 115.146 42.9205 111.943C45.8205 108.74 49.5155 106.558 53.538 105.674C57.5605 104.79 61.7299 105.244 65.519 106.978C69.3081 108.711 72.5467 111.647 74.8253 115.414C77.1039 119.181 78.3201 123.609 78.3201 128.14C78.3201 134.214 76.1353 140.041 72.2465 144.336C68.3576 148.632 63.0831 151.045 57.5835 151.045V151.045Z" fill="#E6E6E6"/>
<path d="M319.284 146.841H97.9331C96.6026 146.841 95.3266 146.258 94.3858 145.218C93.445 144.179 92.9164 142.77 92.9164 141.3C92.9164 139.83 93.445 138.421 94.3858 137.382C95.3266 136.342 96.6026 135.759 97.9331 135.759H319.284C320.615 135.759 321.891 136.342 322.832 137.382C323.772 138.421 324.301 139.83 324.301 141.3C324.301 142.77 323.772 144.179 322.832 145.218C321.891 146.258 320.615 146.841 319.284 146.841Z" fill="#E6E6E6"/>
<path d="M247.168 123.291H97.9281C96.5976 123.291 95.3216 122.707 94.3808 121.668C93.44 120.629 92.9114 119.22 92.9114 117.75C92.9114 116.28 93.44 114.871 94.3808 113.832C95.3216 112.792 96.5976 112.209 97.9281 112.209H247.168C248.499 112.209 249.775 112.792 250.716 113.832C251.656 114.871 252.185 116.28 252.185 117.75C252.185 119.22 251.656 120.629 250.716 121.668C249.775 122.707 248.499 123.291 247.168 123.291V123.291Z" fill="#E6E6E6"/>
<path d="M57.5835 245.938C53.4821 245.938 49.4729 244.595 46.0628 242.078C42.6527 239.561 39.9949 235.983 38.4254 231.798C36.8559 227.613 36.4452 223.007 37.2453 218.564C38.0454 214.121 40.0204 210.039 42.9205 206.836C45.8205 203.632 49.5155 201.451 53.538 200.567C57.5605 199.683 61.7299 200.137 65.519 201.871C69.3081 203.604 72.5467 206.54 74.8253 210.307C77.1039 214.074 78.3201 218.502 78.3201 223.033C78.3201 229.107 76.1353 234.934 72.2465 239.229C68.3576 243.525 63.0831 245.938 57.5835 245.938V245.938Z" fill="#E6E6E6"/>
<path d="M319.284 241.734H97.9331C96.6026 241.734 95.3266 241.151 94.3858 240.111C93.445 239.072 92.9164 237.663 92.9164 236.193C92.9164 234.723 93.445 233.314 94.3858 232.275C95.3266 231.235 96.6026 230.652 97.9331 230.652H319.284C320.615 230.652 321.891 231.235 322.832 232.275C323.772 233.314 324.301 234.723 324.301 236.193C324.301 237.663 323.772 239.072 322.832 240.111C321.891 241.151 320.615 241.734 319.284 241.734Z" fill="#E6E6E6"/>
<path d="M247.168 218.184H97.9281C96.5976 218.184 95.3216 217.6 94.3808 216.561C93.44 215.522 92.9114 214.113 92.9114 212.643C92.9114 211.173 93.44 209.764 94.3808 208.725C95.3216 207.685 96.5976 207.102 97.9281 207.102H247.168C248.499 207.102 249.775 207.685 250.716 208.725C251.656 209.764 252.185 211.173 252.185 212.643C252.185 214.113 251.656 215.522 250.716 216.561C249.775 217.6 248.499 218.184 247.168 218.184V218.184Z" fill="#E6E6E6"/>
<path d="M56.5249 41.3043C56.0099 41.3057 55.5084 41.1218 55.0964 40.7805L55.0707 40.7592L49.6958 36.2178C49.4469 36.007 49.2379 35.7441 49.081 35.4442C48.924 35.1442 48.8221 34.813 48.781 34.4695C48.7399 34.126 48.7605 33.7769 48.8415 33.4422C48.9226 33.1075 49.0625 32.7937 49.2533 32.5187C49.4442 32.2437 49.6822 32.013 49.9537 31.8396C50.2253 31.6662 50.5251 31.5536 50.8361 31.5082C51.1471 31.4628 51.4631 31.4856 51.7661 31.5751C52.0691 31.6646 52.3532 31.8192 52.6022 32.03L56.0835 34.9791L64.3097 23.124C64.695 22.5691 65.264 22.206 65.8917 22.1144C66.5193 22.0228 67.1542 22.2103 67.6568 22.6356V22.6356L67.6061 22.7145L67.6582 22.6356C68.16 23.0619 68.4883 23.6906 68.571 24.3838C68.6538 25.077 68.4843 25.7782 68.0996 26.3336L58.4234 40.2716C58.1992 40.5921 57.9113 40.8514 57.5818 41.0292C57.2523 41.2071 56.8902 41.2988 56.5235 41.2972L56.5249 41.3043Z" fill="white"/>
<path d="M533.286 415H391.861C391.671 415 391.49 414.917 391.356 414.769C391.222 414.621 391.147 414.42 391.147 414.211C391.147 414.002 391.222 413.801 391.356 413.653C391.49 413.505 391.671 413.422 391.861 413.422H533.286C533.475 413.422 533.657 413.505 533.791 413.653C533.925 413.801 534 414.002 534 414.211C534 414.42 533.925 414.621 533.791 414.769C533.657 414.917 533.475 415 533.286 415Z" fill="#CCCCCC"/>
<path d="M468.814 146.244C468.814 146.244 466.679 133.205 461.821 134.763C456.964 136.321 444.462 137.915 444.438 131.774C444.415 125.634 456.207 120.206 463.158 120.941C470.11 121.675 481.931 123.923 481.281 135.439C480.759 142.693 478.73 149.715 475.35 155.96L468.814 146.244Z" fill="#2F2E41"/>
</svg>
